<svg width="245" height="245" viewBox="0 0 245 245" fill="none" xmlns="http://www.w3.org/2000/svg">
<circle cx="122.5" cy="122.5" r="122.5" fill="url(#paint0_linear_0_1)"/>
<circle cx="122.5" cy="122.5" r="122.5" fill="url(#paint1_radial_0_1)"/>
<path d="M94.6382 51.8573C92.7784 47.1343 98.3256 42.9659 102.345 46.0665L175.775 102.716C178.398 104.739 178.363 108.709 175.705 110.686L130.923 144L94.6382 51.8573Z" fill="url(#paint2_linear_0_1)"/>
<path d="M150.362 192.143C152.222 196.866 146.674 201.034 142.655 197.934L69.2255 141.284C66.6022 139.261 66.637 135.291 69.2952 133.314L114.077 100L150.362 192.143Z" fill="url(#paint3_linear_0_1)"/>
<defs>
<linearGradient id="paint0_linear_0_1" x1="62.5" y1="14" x2="185.5" y2="237.5" gradientUnits="userSpaceOnUse">
<stop stop-color="#1330CB"/>
<stop offset="1" stop-color="#EB00FF"/>
</linearGradient>
<radialGradient id="paint1_radial_0_1" cx="0" cy="0" r="1" gradientUnits="userSpaceOnUse" gradientTransform="translate(122 122) rotate(90) scale(153.5)">
<stop stop-color="#13CB51"/>
<stop offset="1" stop-color="#4313CB" stop-opacity="0"/>
</radialGradient>
<linearGradient id="paint2_linear_0_1" x1="88" y1="40" x2="134.5" y2="144" gradientUnits="userSpaceOnUse">
<stop stop-color="#FFE500"/>
<stop offset="1" stop-color="white"/>
</linearGradient>
<linearGradient id="paint3_linear_0_1" x1="150" y1="202" x2="110.5" y2="100" gradientUnits="userSpaceOnUse">
<stop stop-color="white"/>
<stop offset="1" stop-color="#FFE600"/>
</linearGradient>
</defs>
</svg>
